<mxfile host="app.diagrams.net" agent="Mozilla/5.0 (Windows NT 10.0; Win64; x64) AppleWebKit/537.36 (KHTML, like Gecko) Chrome/128.0.0.0 Safari/537.36 Edg/128.0.0.0" version="24.7.16">
  <diagram name="Page-1" id="w0_MHzU5yhoLpYj83sCf">
    <mxGraphModel dx="4182" dy="1498" grid="1" gridSize="10" guides="1" tooltips="1" connect="1" arrows="1" fold="1" page="1" pageScale="1" pageWidth="850" pageHeight="1100" math="0" shadow="0">
      <root>
        <mxCell id="0" />
        <mxCell id="1" parent="0" />
        <mxCell id="9-rDVwXnCRWYs8l1Yqpg-5" style="edgeStyle=orthogonalEdgeStyle;rounded=0;orthogonalLoop=1;jettySize=auto;html=1;exitX=0.5;exitY=1;exitDx=0;exitDy=0;" parent="1" source="9-rDVwXnCRWYs8l1Yqpg-2" target="9-rDVwXnCRWYs8l1Yqpg-4" edge="1">
          <mxGeometry relative="1" as="geometry" />
        </mxCell>
        <mxCell id="9-rDVwXnCRWYs8l1Yqpg-2" value="run_save_basin_output_init(fls, shd, cm)" style="rounded=1;whiteSpace=wrap;html=1;fontStyle=1" parent="1" vertex="1">
          <mxGeometry x="-34.5" y="120" width="250" height="40" as="geometry" />
        </mxCell>
        <mxCell id="9-rDVwXnCRWYs8l1Yqpg-3" value="&lt;div&gt;&lt;font style=&quot;font-size: 9px;&quot;&gt;Dependencies:&lt;/font&gt;&lt;/div&gt;&lt;div&gt;&lt;font style=&quot;&quot;&gt;&lt;font size=&quot;1&quot;&gt;Driver\MESH_Driver\save_basin_output.f90: parse_basin_output_flag&lt;/font&gt;&lt;br&gt;&lt;/font&gt;&lt;/div&gt;&lt;div&gt;&lt;font style=&quot;font-size: 9px;&quot;&gt;Driver\MESH_Driver\output_variables.f90: output_variables_activate&lt;/font&gt;&lt;br&gt;&lt;/div&gt;" style="rounded=0;whiteSpace=wrap;html=1;align=left;" parent="1" vertex="1">
          <mxGeometry x="10" y="10" width="330" height="60" as="geometry" />
        </mxCell>
        <mxCell id="9-rDVwXnCRWYs8l1Yqpg-8" style="edgeStyle=orthogonalEdgeStyle;rounded=0;orthogonalLoop=1;jettySize=auto;html=1;exitX=0.5;exitY=1;exitDx=0;exitDy=0;" parent="1" source="9-rDVwXnCRWYs8l1Yqpg-4" target="9-rDVwXnCRWYs8l1Yqpg-7" edge="1">
          <mxGeometry relative="1" as="geometry" />
        </mxCell>
        <mxCell id="9-rDVwXnCRWYs8l1Yqpg-4" value="&lt;span style=&quot;font-weight: normal;&quot;&gt;Is head node&lt;/span&gt;" style="rhombus;whiteSpace=wrap;html=1;rounded=1;fontStyle=1;fillColor=#F19C99;" parent="1" vertex="1">
          <mxGeometry x="-21.310000000000002" y="190" width="221.81" height="50" as="geometry" />
        </mxCell>
        <mxCell id="9-rDVwXnCRWYs8l1Yqpg-10" value="" style="edgeStyle=orthogonalEdgeStyle;rounded=0;orthogonalLoop=1;jettySize=auto;html=1;exitX=0.5;exitY=1;exitDx=0;exitDy=0;" parent="1" source="9-rDVwXnCRWYs8l1Yqpg-7" target="9-rDVwXnCRWYs8l1Yqpg-9" edge="1">
          <mxGeometry relative="1" as="geometry">
            <mxPoint x="85.5" y="330" as="sourcePoint" />
          </mxGeometry>
        </mxCell>
        <mxCell id="9-rDVwXnCRWYs8l1Yqpg-7" value="&lt;span style=&quot;font-weight: normal;&quot;&gt;!&amp;gt; Parse output file flags.&lt;/span&gt;&lt;div&gt;call parse_basin_output_flag&amp;nbsp;&lt;span style=&quot;font-weight: 400; background-color: initial;&quot;&gt;x 4&lt;/span&gt;&lt;br&gt;&lt;/div&gt;" style="rounded=1;whiteSpace=wrap;html=1;fontStyle=1;fillColor=#CCFFCC;" parent="1" vertex="1">
          <mxGeometry x="-19.5" y="270" width="220" height="40" as="geometry" />
        </mxCell>
        <mxCell id="9-rDVwXnCRWYs8l1Yqpg-12" value="" style="group" parent="1" vertex="1" connectable="0">
          <mxGeometry x="-117" y="340" width="415" height="270" as="geometry" />
        </mxCell>
        <mxCell id="9-rDVwXnCRWYs8l1Yqpg-9" value="&lt;div&gt;&lt;div style=&quot;text-align: left;&quot;&gt;&lt;br&gt;&lt;/div&gt;&lt;/div&gt;" style="whiteSpace=wrap;html=1;fillColor=#CCFFCC;rounded=1;fontStyle=1;" parent="9-rDVwXnCRWYs8l1Yqpg-12" vertex="1">
          <mxGeometry width="415" height="270" as="geometry" />
        </mxCell>
        <mxCell id="9-rDVwXnCRWYs8l1Yqpg-11" value="&lt;div&gt;Create output files for basin info for Daily, Monthly, Hourly, per time step values:&lt;/div&gt;&lt;div&gt;Water balance:&lt;/div&gt;&lt;div&gt;- Open Basin_average_water_balance.csv&lt;/div&gt;&lt;div&gt;- call allocate_water_balance_out(shd, out%d)&lt;/div&gt;&lt;div&gt;&lt;span style=&quot;background-color: initial;&quot;&gt;- call write_water_balance_header&lt;/span&gt;&lt;br&gt;&lt;/div&gt;&lt;div&gt;- Open Basin_average_water_balance_Gauge*.csv&lt;span style=&quot;background-color: initial;&quot;&gt;&lt;br&gt;&lt;/span&gt;&lt;/div&gt;&lt;div&gt;&lt;br&gt;&lt;/div&gt;&lt;div&gt;Energy balance:&lt;/div&gt;&lt;div&gt;- call allocate_energy_balance_out&lt;/div&gt;&lt;div&gt;- Open Basin_average_energy_balance.csv&lt;br&gt;&lt;/div&gt;&lt;div&gt;- call write_energy_balance_header&lt;/div&gt;&lt;div&gt;&lt;br&gt;&lt;/div&gt;&lt;div&gt;Evaporation:&lt;/div&gt;&lt;div&gt;- call allocate_evp_out&lt;br&gt;&lt;/div&gt;&lt;div&gt;- Open Basin_average_evap.csv&lt;br&gt;&lt;/div&gt;&lt;div&gt;- call update_evp_header&lt;/div&gt;&lt;div&gt;&lt;br&gt;&lt;/div&gt;" style="text;html=1;align=left;verticalAlign=middle;whiteSpace=wrap;rounded=0;" parent="9-rDVwXnCRWYs8l1Yqpg-12" vertex="1">
          <mxGeometry x="43" y="30" width="337" height="230" as="geometry" />
        </mxCell>
        <mxCell id="9-rDVwXnCRWYs8l1Yqpg-16" value="Open&amp;nbsp;basin_SCA_alldays.csv&lt;div&gt;Open&amp;nbsp;basin_SWE_alldays.csv&lt;br&gt;call output_variables_activate(out%d%basin,..)&lt;br&gt;&lt;/div&gt;" style="rounded=1;whiteSpace=wrap;html=1;" parent="1" vertex="1">
          <mxGeometry x="215.5" y="633.75" width="260" height="82.5" as="geometry" />
        </mxCell>
        <mxCell id="9-rDVwXnCRWYs8l1Yqpg-21" style="edgeStyle=orthogonalEdgeStyle;rounded=0;orthogonalLoop=1;jettySize=auto;html=1;exitX=1;exitY=0.5;exitDx=0;exitDy=0;entryX=0;entryY=0.5;entryDx=0;entryDy=0;" parent="1" source="9-rDVwXnCRWYs8l1Yqpg-17" target="9-rDVwXnCRWYs8l1Yqpg-16" edge="1">
          <mxGeometry relative="1" as="geometry" />
        </mxCell>
        <mxCell id="9-rDVwXnCRWYs8l1Yqpg-23" value="" style="rounded=0;orthogonalLoop=1;jettySize=auto;html=1;" parent="1" source="9-rDVwXnCRWYs8l1Yqpg-17" target="9-rDVwXnCRWYs8l1Yqpg-22" edge="1">
          <mxGeometry relative="1" as="geometry" />
        </mxCell>
        <mxCell id="9-rDVwXnCRWYs8l1Yqpg-17" value="&lt;span style=&quot;font-weight: 400;&quot;&gt;if (btest(bnoflg%swe%t, 0))&lt;/span&gt;" style="rhombus;whiteSpace=wrap;html=1;rounded=1;fontStyle=1;fillColor=#F19C99;" parent="1" vertex="1">
          <mxGeometry x="-27.879999999999995" y="650" width="221.81" height="50" as="geometry" />
        </mxCell>
        <mxCell id="9-rDVwXnCRWYs8l1Yqpg-20" style="rounded=0;orthogonalLoop=1;jettySize=auto;html=1;entryX=0.5;entryY=0;entryDx=0;entryDy=0;" parent="1" source="9-rDVwXnCRWYs8l1Yqpg-9" target="9-rDVwXnCRWYs8l1Yqpg-17" edge="1">
          <mxGeometry relative="1" as="geometry" />
        </mxCell>
        <mxCell id="9-rDVwXnCRWYs8l1Yqpg-25" value="" style="edgeStyle=orthogonalEdgeStyle;rounded=0;orthogonalLoop=1;jettySize=auto;html=1;" parent="1" source="9-rDVwXnCRWYs8l1Yqpg-22" target="9-rDVwXnCRWYs8l1Yqpg-24" edge="1">
          <mxGeometry relative="1" as="geometry" />
        </mxCell>
        <mxCell id="9-rDVwXnCRWYs8l1Yqpg-22" value="&lt;div&gt;&lt;span style=&quot;font-weight: 400;&quot;&gt;Allocate memory for file descriptors to store streamflow (&lt;/span&gt;&lt;span style=&quot;background-color: initial; font-weight: 400;&quot;&gt;WF_RTE_fstflout)&amp;nbsp;&lt;/span&gt;&lt;span style=&quot;font-weight: 400; background-color: initial;&quot;&gt;and reach (&lt;/span&gt;&lt;span style=&quot;background-color: initial; font-weight: 400;&quot;&gt;WF_RTE_frsvrout)&lt;/span&gt;&lt;span style=&quot;background-color: initial; font-weight: 400;&quot;&gt;&amp;nbsp;output data&amp;nbsp;&lt;/span&gt;&lt;/div&gt;" style="whiteSpace=wrap;html=1;fillColor=#FFFFFF;rounded=1;fontStyle=1;" parent="1" vertex="1">
          <mxGeometry x="-8.310000000000002" y="740" width="199.43" height="70" as="geometry" />
        </mxCell>
        <mxCell id="9-rDVwXnCRWYs8l1Yqpg-27" value="" style="edgeStyle=orthogonalEdgeStyle;rounded=0;orthogonalLoop=1;jettySize=auto;html=1;" parent="1" source="9-rDVwXnCRWYs8l1Yqpg-24" target="9-rDVwXnCRWYs8l1Yqpg-26" edge="1">
          <mxGeometry relative="1" as="geometry" />
        </mxCell>
        <mxCell id="9-rDVwXnCRWYs8l1Yqpg-24" value="&lt;span style=&quot;font-weight: normal;&quot;&gt;Filenames and unit numbers are assigned for streamflow (&lt;/span&gt;MESH_output_streamflow.csv and MESH_output_streamflow_ts.csv&lt;span style=&quot;font-weight: normal;&quot;&gt;) and reach data (&lt;/span&gt;MESH_output_reach.csv and MESH_output_reach_ts.csv&lt;span style=&quot;font-weight: normal;&quot;&gt;)&lt;/span&gt;" style="whiteSpace=wrap;html=1;fillColor=#FFFFFF;rounded=1;fontStyle=1;" parent="1" vertex="1">
          <mxGeometry x="-33.64999999999998" y="840" width="250.12" height="100" as="geometry" />
        </mxCell>
        <mxCell id="9-rDVwXnCRWYs8l1Yqpg-29" value="" style="edgeStyle=orthogonalEdgeStyle;rounded=0;orthogonalLoop=1;jettySize=auto;html=1;" parent="1" source="9-rDVwXnCRWYs8l1Yqpg-26" target="9-rDVwXnCRWYs8l1Yqpg-28" edge="1">
          <mxGeometry relative="1" as="geometry" />
        </mxCell>
        <mxCell id="9-rDVwXnCRWYs8l1Yqpg-26" value="&lt;span style=&quot;font-weight: normal;&quot;&gt;Parses the&lt;/span&gt; REACHOUTFLAG &lt;span style=&quot;font-weight: normal;&quot;&gt;and adjusts output frequency for reaches output&amp;nbsp;&lt;/span&gt;" style="whiteSpace=wrap;html=1;fillColor=#FFFFFF;rounded=1;fontStyle=1;" parent="1" vertex="1">
          <mxGeometry x="-5.639999999999986" y="970" width="194.09" height="80" as="geometry" />
        </mxCell>
        <mxCell id="9-rDVwXnCRWYs8l1Yqpg-31" style="edgeStyle=orthogonalEdgeStyle;rounded=0;orthogonalLoop=1;jettySize=auto;html=1;entryX=0.5;entryY=0;entryDx=0;entryDy=0;" parent="1" source="9-rDVwXnCRWYs8l1Yqpg-28" target="9-rDVwXnCRWYs8l1Yqpg-30" edge="1">
          <mxGeometry relative="1" as="geometry" />
        </mxCell>
        <mxCell id="9-rDVwXnCRWYs8l1Yqpg-28" value="&lt;span style=&quot;font-weight: normal;&quot;&gt;- Open output files for reaches&lt;/span&gt;&lt;div&gt;&lt;span style=&quot;font-weight: 400;&quot;&gt;- Open output File for Lake Levels&lt;/span&gt;&lt;br&gt;&lt;/div&gt;" style="whiteSpace=wrap;html=1;fillColor=#FFFFFF;rounded=1;fontStyle=1;" parent="1" vertex="1">
          <mxGeometry x="-11.120000000000005" y="1080" width="205.05" height="80" as="geometry" />
        </mxCell>
        <mxCell id="9-rDVwXnCRWYs8l1Yqpg-33" style="edgeStyle=orthogonalEdgeStyle;rounded=0;orthogonalLoop=1;jettySize=auto;html=1;entryX=0.5;entryY=0;entryDx=0;entryDy=0;" parent="1" source="9-rDVwXnCRWYs8l1Yqpg-30" target="9-rDVwXnCRWYs8l1Yqpg-32" edge="1">
          <mxGeometry relative="1" as="geometry" />
        </mxCell>
        <mxCell id="9-rDVwXnCRWYs8l1Yqpg-30" value="&lt;span style=&quot;font-weight: normal;&quot;&gt;Parses the&lt;/span&gt; STREAMFLOWOUTFLAG&amp;nbsp;&lt;span style=&quot;font-weight: normal;&quot;&gt;and adjusts output frequency for reaches output&amp;nbsp;&lt;/span&gt;" style="whiteSpace=wrap;html=1;fillColor=#FFFFFF;rounded=1;fontStyle=1;" parent="1" vertex="1">
          <mxGeometry x="-5.639999999999986" y="1190" width="194.09" height="80" as="geometry" />
        </mxCell>
        <mxCell id="9-rDVwXnCRWYs8l1Yqpg-35" value="" style="edgeStyle=orthogonalEdgeStyle;rounded=0;orthogonalLoop=1;jettySize=auto;html=1;" parent="1" source="9-rDVwXnCRWYs8l1Yqpg-32" target="9-rDVwXnCRWYs8l1Yqpg-34" edge="1">
          <mxGeometry relative="1" as="geometry" />
        </mxCell>
        <mxCell id="9-rDVwXnCRWYs8l1Yqpg-32" value="&lt;span style=&quot;font-weight: normal;&quot;&gt;Open output files for streamflow&lt;/span&gt;" style="whiteSpace=wrap;html=1;fillColor=#FFFFFF;rounded=1;fontStyle=1;" parent="1" vertex="1">
          <mxGeometry x="-1.5" y="1300" width="187" height="50" as="geometry" />
        </mxCell>
        <mxCell id="9-rDVwXnCRWYs8l1Yqpg-37" value="" style="edgeStyle=orthogonalEdgeStyle;rounded=0;orthogonalLoop=1;jettySize=auto;html=1;" parent="1" source="9-rDVwXnCRWYs8l1Yqpg-34" target="9-rDVwXnCRWYs8l1Yqpg-36" edge="1">
          <mxGeometry relative="1" as="geometry" />
        </mxCell>
        <mxCell id="9-rDVwXnCRWYs8l1Yqpg-34" value="&lt;div&gt;&lt;span style=&quot;background-color: initial; font-weight: 400;&quot;&gt;!&amp;gt; Allocate output variables&lt;/span&gt;&lt;span style=&quot;background-color: initial; font-weight: normal;&quot;&gt;call call output_variables_activate&lt;/span&gt;&lt;br&gt;&lt;/div&gt;" style="whiteSpace=wrap;html=1;fillColor=#CCFFCC;rounded=1;fontStyle=1;" parent="1" vertex="1">
          <mxGeometry x="6.8700000000000045" y="1380" width="170.25" height="60" as="geometry" />
        </mxCell>
        <mxCell id="9-rDVwXnCRWYs8l1Yqpg-36" value="end subroutine" style="whiteSpace=wrap;html=1;fillColor=#FFFFFF;rounded=1;fontStyle=1;" parent="1" vertex="1">
          <mxGeometry x="32.004999999999995" y="1470" width="120" height="60" as="geometry" />
        </mxCell>
        <mxCell id="mDvnQQcxqjsoB_AFqfNM-1" value="save_basin_output.f90" style="rounded=1;whiteSpace=wrap;html=1;fillColor=#FFCCCC;" parent="1" vertex="1">
          <mxGeometry x="363" y="20" width="147" height="40" as="geometry" />
        </mxCell>
        <mxCell id="b2gS8BjRgETT6J0pln7O-1" style="edgeStyle=orthogonalEdgeStyle;rounded=0;orthogonalLoop=1;jettySize=auto;html=1;exitX=0.5;exitY=1;exitDx=0;exitDy=0;" parent="1" source="b2gS8BjRgETT6J0pln7O-2" target="b2gS8BjRgETT6J0pln7O-4" edge="1">
          <mxGeometry relative="1" as="geometry" />
        </mxCell>
        <mxCell id="b2gS8BjRgETT6J0pln7O-2" value="run_save_basin_output(fls, shd, cm)" style="rounded=1;whiteSpace=wrap;html=1;fontStyle=1" parent="1" vertex="1">
          <mxGeometry x="493" y="120" width="250" height="40" as="geometry" />
        </mxCell>
        <mxCell id="b2gS8BjRgETT6J0pln7O-3" value="" style="edgeStyle=orthogonalEdgeStyle;rounded=0;orthogonalLoop=1;jettySize=auto;html=1;entryX=0.5;entryY=0;entryDx=0;entryDy=0;" parent="1" source="b2gS8BjRgETT6J0pln7O-4" target="b2gS8BjRgETT6J0pln7O-8" edge="1">
          <mxGeometry relative="1" as="geometry">
            <mxPoint x="618" y="270" as="targetPoint" />
          </mxGeometry>
        </mxCell>
        <mxCell id="b2gS8BjRgETT6J0pln7O-4" value="&lt;span style=&quot;font-weight: normal;&quot;&gt;Is head node&lt;/span&gt;" style="rhombus;whiteSpace=wrap;html=1;rounded=1;fontStyle=1;fillColor=#F19C99;" parent="1" vertex="1">
          <mxGeometry x="506.19000000000005" y="190" width="221.81" height="50" as="geometry" />
        </mxCell>
        <mxCell id="b2gS8BjRgETT6J0pln7O-7" value="" style="group;fillColor=#FFFFFF;" parent="1" vertex="1" connectable="0">
          <mxGeometry x="493" y="270" width="245.9" height="160" as="geometry" />
        </mxCell>
        <mxCell id="b2gS8BjRgETT6J0pln7O-8" value="&lt;div&gt;&lt;br&gt;&lt;/div&gt;" style="rounded=1;whiteSpace=wrap;html=1;fontStyle=1;fillColor=#CCFFCC;" parent="b2gS8BjRgETT6J0pln7O-7" vertex="1">
          <mxGeometry width="245.9" height="160" as="geometry" />
        </mxCell>
        <mxCell id="b2gS8BjRgETT6J0pln7O-9" value="&lt;div&gt;Write output files for basin info for&amp;nbsp;&lt;span style=&quot;background-color: initial;&quot;&gt;Hourly,&amp;nbsp;&lt;/span&gt;&lt;/div&gt;&lt;div&gt;&lt;span style=&quot;background-color: initial;&quot;&gt;Daily, Monthly, and Time-step values:&lt;/span&gt;&lt;/div&gt;&lt;div&gt;Water balance:&lt;/div&gt;&lt;div&gt;- call write_water_balance&lt;/div&gt;&lt;div&gt;&lt;br&gt;&lt;/div&gt;&lt;div&gt;&lt;div&gt;Evaporation:&lt;/div&gt;&lt;div&gt;- call&amp;nbsp;update_evp&lt;/div&gt;&lt;/div&gt;&lt;div&gt;&lt;br&gt;&lt;/div&gt;&lt;div&gt;Energy balance:&lt;/div&gt;&lt;div&gt;-&amp;nbsp;&lt;span style=&quot;background-color: initial;&quot;&gt;call write_energy_balance&lt;/span&gt;&lt;/div&gt;" style="text;html=1;align=left;verticalAlign=middle;whiteSpace=wrap;rounded=0;" parent="b2gS8BjRgETT6J0pln7O-7" vertex="1">
          <mxGeometry x="8.782142857142857" y="9.411764705882353" width="228.3357142857143" height="141.1764705882353" as="geometry" />
        </mxCell>
        <mxCell id="b2gS8BjRgETT6J0pln7O-10" value="" style="edgeStyle=orthogonalEdgeStyle;rounded=0;orthogonalLoop=1;jettySize=auto;html=1;" parent="1" source="b2gS8BjRgETT6J0pln7O-13" target="b2gS8BjRgETT6J0pln7O-15" edge="1">
          <mxGeometry relative="1" as="geometry" />
        </mxCell>
        <mxCell id="b2gS8BjRgETT6J0pln7O-11" value="True" style="edgeLabel;html=1;align=center;verticalAlign=middle;resizable=0;points=[];" parent="b2gS8BjRgETT6J0pln7O-10" vertex="1" connectable="0">
          <mxGeometry x="-0.3818" relative="1" as="geometry">
            <mxPoint as="offset" />
          </mxGeometry>
        </mxCell>
        <mxCell id="b2gS8BjRgETT6J0pln7O-12" style="edgeStyle=orthogonalEdgeStyle;rounded=0;orthogonalLoop=1;jettySize=auto;html=1;entryX=0.5;entryY=0;entryDx=0;entryDy=0;" parent="1" source="b2gS8BjRgETT6J0pln7O-13" target="b2gS8BjRgETT6J0pln7O-18" edge="1">
          <mxGeometry relative="1" as="geometry" />
        </mxCell>
        <mxCell id="b2gS8BjRgETT6J0pln7O-13" value="&lt;span style=&quot;font-weight: normal;&quot;&gt;Check SWE flag &amp;amp;&lt;/span&gt;&lt;div&gt;&lt;span style=&quot;font-weight: normal;&quot;&gt;&amp;nbsp;time == 12:00&lt;/span&gt;&lt;/div&gt;" style="rhombus;whiteSpace=wrap;html=1;rounded=1;fontStyle=1;fillColor=#F19C99;" parent="1" vertex="1">
          <mxGeometry x="506.19000000000005" y="470" width="221.81" height="50" as="geometry" />
        </mxCell>
        <mxCell id="b2gS8BjRgETT6J0pln7O-14" style="edgeStyle=orthogonalEdgeStyle;rounded=0;orthogonalLoop=1;jettySize=auto;html=1;entryX=0.5;entryY=0;entryDx=0;entryDy=0;" parent="1" source="b2gS8BjRgETT6J0pln7O-8" target="b2gS8BjRgETT6J0pln7O-13" edge="1">
          <mxGeometry relative="1" as="geometry" />
        </mxCell>
        <mxCell id="b2gS8BjRgETT6J0pln7O-15" value="&lt;span style=&quot;font-weight: normal;&quot;&gt;Write specific snow data (fsno and sno) to two files: 85, 86&lt;/span&gt;" style="whiteSpace=wrap;html=1;fillColor=#FFFFFF;rounded=1;fontStyle=1;" parent="1" vertex="1">
          <mxGeometry x="783" y="465" width="130.01" height="55" as="geometry" />
        </mxCell>
        <mxCell id="b2gS8BjRgETT6J0pln7O-16" value="" style="edgeStyle=orthogonalEdgeStyle;rounded=0;orthogonalLoop=1;jettySize=auto;html=1;" parent="1" source="b2gS8BjRgETT6J0pln7O-18" target="b2gS8BjRgETT6J0pln7O-19" edge="1">
          <mxGeometry relative="1" as="geometry" />
        </mxCell>
        <mxCell id="b2gS8BjRgETT6J0pln7O-17" value="" style="edgeStyle=orthogonalEdgeStyle;rounded=0;orthogonalLoop=1;jettySize=auto;html=1;" parent="1" source="b2gS8BjRgETT6J0pln7O-18" target="b2gS8BjRgETT6J0pln7O-21" edge="1">
          <mxGeometry relative="1" as="geometry" />
        </mxCell>
        <mxCell id="b2gS8BjRgETT6J0pln7O-18" value="&lt;span style=&quot;font-weight: 400;&quot;&gt;ro%RUNCHNL &amp;amp;&amp;nbsp;&lt;/span&gt;&lt;span style=&quot;background-color: initial; font-weight: 400;&quot;&gt;timestep&lt;/span&gt;&lt;div&gt;&lt;span style=&quot;background-color: initial; font-weight: 400;&quot;&gt;&amp;nbsp;is multiple of&amp;nbsp;&lt;/span&gt;&lt;span style=&quot;background-color: initial; font-weight: 400;&quot;&gt;RTE_TS&lt;/span&gt;&lt;span style=&quot;background-color: initial; font-weight: 400;&quot;&gt;&amp;nbsp;&lt;/span&gt;&lt;/div&gt;" style="rhombus;whiteSpace=wrap;html=1;rounded=1;fontStyle=1;fillColor=#F19C99;" parent="1" vertex="1">
          <mxGeometry x="516.75" y="550" width="202.5" height="80" as="geometry" />
        </mxCell>
        <mxCell id="b2gS8BjRgETT6J0pln7O-19" value="&lt;span style=&quot;font-weight: normal;&quot;&gt;1.Calculate the flow (qo) and storage change (stgch) for grid cells&lt;/span&gt;&lt;div&gt;&lt;span style=&quot;font-weight: normal;&quot;&gt;2. &lt;/span&gt;&lt;span style=&quot;font-weight: 400;&quot;&gt;Write per time-step output for reaches and streamflow:&lt;/span&gt;&lt;br&gt;&lt;/div&gt;&lt;blockquote style=&quot;margin: 0 0 0 40px; border: none; padding: 0px;&quot;&gt;&lt;div&gt;&lt;span style=&quot;background-color: initial; font-weight: 400;&quot;&gt;-&amp;gt; Divide by number of time-steps in routing time-step to resolve issues when RTE_TS &amp;gt; ic%dts&lt;/span&gt;&lt;/div&gt;&lt;/blockquote&gt;" style="whiteSpace=wrap;html=1;fillColor=#FFFFFF;rounded=1;fontStyle=1;align=left;" parent="1" vertex="1">
          <mxGeometry x="728" y="525" width="240" height="130" as="geometry" />
        </mxCell>
        <mxCell id="b2gS8BjRgETT6J0pln7O-20" value="" style="edgeStyle=orthogonalEdgeStyle;rounded=0;orthogonalLoop=1;jettySize=auto;html=1;entryX=0.5;entryY=0;entryDx=0;entryDy=0;exitX=0.533;exitY=1.029;exitDx=0;exitDy=0;exitPerimeter=0;" parent="1" source="b2gS8BjRgETT6J0pln7O-24" target="b2gS8BjRgETT6J0pln7O-27" edge="1">
          <mxGeometry relative="1" as="geometry">
            <Array as="points">
              <mxPoint x="865" y="740" />
              <mxPoint x="858" y="740" />
            </Array>
          </mxGeometry>
        </mxCell>
        <mxCell id="b2gS8BjRgETT6J0pln7O-38" style="edgeStyle=orthogonalEdgeStyle;rounded=0;orthogonalLoop=1;jettySize=auto;html=1;entryX=0.5;entryY=0;entryDx=0;entryDy=0;" parent="1" source="b2gS8BjRgETT6J0pln7O-21" target="b2gS8BjRgETT6J0pln7O-33" edge="1">
          <mxGeometry relative="1" as="geometry" />
        </mxCell>
        <mxCell id="b2gS8BjRgETT6J0pln7O-21" value="&lt;span style=&quot;font-weight: 400;&quot;&gt;Check for the Last&amp;nbsp;&lt;/span&gt;&lt;div&gt;&lt;span style=&quot;font-weight: 400;&quot;&gt;Time-Step of the Day&lt;/span&gt;&lt;/div&gt;" style="rhombus;whiteSpace=wrap;html=1;rounded=1;fontStyle=1;fillColor=#F19C99;" parent="1" vertex="1">
          <mxGeometry x="514.78" y="670" width="204.47" height="60" as="geometry" />
        </mxCell>
        <mxCell id="b2gS8BjRgETT6J0pln7O-22" value="" style="group" parent="1" vertex="1" connectable="0">
          <mxGeometry x="743" y="670" width="220" height="75" as="geometry" />
        </mxCell>
        <mxCell id="b2gS8BjRgETT6J0pln7O-23" value="" style="whiteSpace=wrap;html=1;fillColor=#FFFFFF;rounded=1;fontStyle=1;" parent="b2gS8BjRgETT6J0pln7O-22" vertex="1">
          <mxGeometry width="220" height="70" as="geometry" />
        </mxCell>
        <mxCell id="b2gS8BjRgETT6J0pln7O-24" value="1. Calculate Water Level (&lt;code&gt;zlvl&lt;/code&gt;) for&amp;nbsp;Reservoirs&lt;div&gt;2. Write water level data to output file based on the unit number (iun)&lt;/div&gt;" style="text;whiteSpace=wrap;html=1;" parent="b2gS8BjRgETT6J0pln7O-22" vertex="1">
          <mxGeometry x="10" width="210" height="70" as="geometry" />
        </mxCell>
        <mxCell id="b2gS8BjRgETT6J0pln7O-25" value="" style="rounded=0;orthogonalLoop=1;jettySize=auto;html=1;exitX=1;exitY=0.5;exitDx=0;exitDy=0;" parent="1" source="b2gS8BjRgETT6J0pln7O-21" target="b2gS8BjRgETT6J0pln7O-23" edge="1">
          <mxGeometry relative="1" as="geometry" />
        </mxCell>
        <mxCell id="b2gS8BjRgETT6J0pln7O-26" value="" style="group" parent="1" vertex="1" connectable="0">
          <mxGeometry x="753" y="770" width="210" height="120" as="geometry" />
        </mxCell>
        <mxCell id="b2gS8BjRgETT6J0pln7O-27" value="" style="rounded=0;whiteSpace=wrap;html=1;" parent="b2gS8BjRgETT6J0pln7O-26" vertex="1">
          <mxGeometry width="210" height="120" as="geometry" />
        </mxCell>
        <mxCell id="b2gS8BjRgETT6J0pln7O-28" value="&lt;span style=&quot;font-weight: normal;&quot;&gt;Accumulates&amp;nbsp;streamflow measurements from different stations and adds to the total in&amp;nbsp;&lt;/span&gt;&lt;span style=&quot;font-weight: 400;&quot;&gt;WF_QHYD_CUM(i)&lt;/span&gt;" style="whiteSpace=wrap;html=1;fillColor=#FFFFFF;rounded=1;fontStyle=1;" parent="b2gS8BjRgETT6J0pln7O-26" vertex="1">
          <mxGeometry x="26.879999999999995" y="35" width="166.25" height="75" as="geometry" />
        </mxCell>
        <mxCell id="b2gS8BjRgETT6J0pln7O-29" value="do i = 1, fms%stmg%n" style="text;html=1;align=center;verticalAlign=middle;whiteSpace=wrap;rounded=0;" parent="b2gS8BjRgETT6J0pln7O-26" vertex="1">
          <mxGeometry x="10" y="10" width="130" height="10" as="geometry" />
        </mxCell>
        <mxCell id="b2gS8BjRgETT6J0pln7O-31" value="&lt;span style=&quot;font-weight: normal;&quot;&gt;if flags are set-&amp;gt;&lt;/span&gt;&lt;div&gt;&lt;span style=&quot;font-weight: normal;&quot;&gt;Write daily streamflow output to a file, including cumulative, hydrological, and balance data for each stream gauge&lt;/span&gt;&lt;/div&gt;" style="whiteSpace=wrap;html=1;fillColor=#FFFFFF;rounded=1;fontStyle=1;" parent="1" vertex="1">
          <mxGeometry x="773.25" y="920" width="180" height="100" as="geometry" />
        </mxCell>
        <mxCell id="b2gS8BjRgETT6J0pln7O-32" value="" style="edgeStyle=orthogonalEdgeStyle;rounded=0;orthogonalLoop=1;jettySize=auto;html=1;" parent="1" target="b2gS8BjRgETT6J0pln7O-31" edge="1">
          <mxGeometry relative="1" as="geometry">
            <mxPoint x="863" y="890" as="sourcePoint" />
          </mxGeometry>
        </mxCell>
        <mxCell id="b2gS8BjRgETT6J0pln7O-33" value="end subroutine" style="whiteSpace=wrap;html=1;fillColor=#FFFFFF;rounded=1;fontStyle=1;" parent="1" vertex="1">
          <mxGeometry x="558.13" y="770" width="119.75" height="30" as="geometry" />
        </mxCell>
        <mxCell id="l-M_TmjpaLOq3sclqY0j-1" style="edgeStyle=orthogonalEdgeStyle;rounded=0;orthogonalLoop=1;jettySize=auto;html=1;entryX=0.5;entryY=0;entryDx=0;entryDy=0;" edge="1" parent="1" source="l-M_TmjpaLOq3sclqY0j-2" target="l-M_TmjpaLOq3sclqY0j-4">
          <mxGeometry relative="1" as="geometry" />
        </mxCell>
        <mxCell id="l-M_TmjpaLOq3sclqY0j-2" value="run_save_basin_output_finalize(fls, shd, cm)" style="rounded=1;whiteSpace=wrap;html=1;fontStyle=1" vertex="1" parent="1">
          <mxGeometry x="480.2399999999999" y="1110" width="275.53" height="30" as="geometry" />
        </mxCell>
        <mxCell id="l-M_TmjpaLOq3sclqY0j-3" style="edgeStyle=orthogonalEdgeStyle;rounded=0;orthogonalLoop=1;jettySize=auto;html=1;entryX=0.5;entryY=0;entryDx=0;entryDy=0;" edge="1" parent="1" source="l-M_TmjpaLOq3sclqY0j-4" target="l-M_TmjpaLOq3sclqY0j-5">
          <mxGeometry relative="1" as="geometry" />
        </mxCell>
        <mxCell id="l-M_TmjpaLOq3sclqY0j-4" value="&lt;span style=&quot;font-weight: normal;&quot;&gt;Is head node&lt;/span&gt;" style="rhombus;whiteSpace=wrap;html=1;rounded=1;fontStyle=1;fillColor=#F19C99;" vertex="1" parent="1">
          <mxGeometry x="507.0999999999999" y="1170" width="221.81" height="50" as="geometry" />
        </mxCell>
        <mxCell id="l-M_TmjpaLOq3sclqY0j-5" value="end subroutine" style="whiteSpace=wrap;html=1;fillColor=#FFFFFF;rounded=1;fontStyle=1;" vertex="1" parent="1">
          <mxGeometry x="558.1300000000001" y="1250" width="119.75" height="30" as="geometry" />
        </mxCell>
      </root>
    </mxGraphModel>
  </diagram>
</mxfile>
